<svg xmlns="http://www.w3.org/2000/svg" viewBox="0 0 800 800" role="img" aria-label="Chocolate cake hero image">
  <defs>
    <linearGradient id="bg" x1="0" y1="0" x2="1" y2="1">
      <stop offset="0%" stop-color="#8e2f3c"/>
      <stop offset="100%" stop-color="#2a0d11"/>
    </linearGradient>
    <linearGradient id="cakeBody" x1="0" y1="0" x2="0" y2="1">
      <stop offset="0%" stop-color="#4d2a1e"/>
      <stop offset="100%" stop-color="#25120d"/>
    </linearGradient>
    <linearGradient id="drip" x1="0" y1="0" x2="0" y2="1">
      <stop offset="0%" stop-color="#5f2a22"/>
      <stop offset="100%" stop-color="#2f1611"/>
    </linearGradient>
    <filter id="shadow" x="-20%" y="-20%" width="140%" height="140%">
      <feDropShadow dx="0" dy="14" stdDeviation="14" flood-color="#000" flood-opacity="0.45"/>
    </filter>
  </defs>

  <rect width="800" height="800" fill="url(#bg)"/>
  <circle cx="94" cy="90" r="62" fill="#d15f77" opacity="0.35"/>
  <circle cx="700" cy="118" r="86" fill="#d06879" opacity="0.23"/>
  <circle cx="654" cy="652" r="96" fill="#b4475a" opacity="0.2"/>

  <g transform="translate(84 110)" filter="url(#shadow)">
    <ellipse cx="316" cy="520" rx="222" ry="38" fill="#1e0907" opacity="0.6"/>
    <rect x="106" y="234" width="420" height="258" rx="38" fill="url(#cakeBody)"/>
    <ellipse cx="316" cy="234" rx="210" ry="62" fill="#6f3728"/>
    <path d="M106 250 C140 286 190 250 224 286 C258 250 308 286 342 250 C378 286 430 250 470 286 C494 254 514 270 526 244 L526 318 L106 318 Z" fill="url(#drip)"/>

    <circle cx="192" cy="168" r="30" fill="#d7475e"/>
    <circle cx="236" cy="150" r="28" fill="#d85f70"/>
    <circle cx="274" cy="172" r="26" fill="#bd2f43"/>
    <circle cx="320" cy="146" r="30" fill="#ca394e"/>
    <circle cx="360" cy="170" r="24" fill="#9f1f33"/>
    <circle cx="404" cy="154" r="28" fill="#d55362"/>
    <circle cx="444" cy="178" r="26" fill="#7d1a2c"/>

    <circle cx="226" cy="188" r="12" fill="#254a2d"/>
    <circle cx="332" cy="182" r="12" fill="#2f5b36"/>
    <circle cx="410" cy="194" r="10" fill="#2b502f"/>

    <circle cx="316" cy="232" r="94" fill="#3f1f16" opacity="0.3"/>
  </g>
</svg>
