<svg xmlns="http://www.w3.org/2000/svg" viewBox="0 0 640 420" role="img" aria-label="Product cake image">
  <defs>
    <linearGradient id="bg" x1="0" y1="0" x2="1" y2="1">
      <stop offset="0%" stop-color="__BG1__"/>
      <stop offset="100%" stop-color="__BG2__"/>
    </linearGradient>
    <linearGradient id="cake" x1="0" y1="0" x2="0" y2="1">
      <stop offset="0%" stop-color="__CAKE1__"/>
      <stop offset="100%" stop-color="__CAKE2__"/>
    </linearGradient>
  </defs>
  <rect width="640" height="420" fill="url(#bg)"/>
  <circle cx="96" cy="78" r="52" fill="#f3dfd2" opacity="0.95"/>
  <circle cx="500" cy="102" r="40" fill="__DOT__" opacity="0.95"/>
  <ellipse cx="316" cy="318" rx="188" ry="26" fill="#1e0f0b" opacity="0.45"/>
  <rect x="170" y="148" width="292" height="162" rx="22" fill="url(#cake)"/>
  <ellipse cx="316" cy="148" rx="146" ry="44" fill="__TOP__"/>
  <path d="M170 162 C202 188 238 162 266 190 C292 164 328 190 354 164 C382 192 418 164 446 190 C456 178 462 170 462 162 L462 214 L170 214 Z" fill="__DRIP__"/>
  <circle cx="244" cy="130" r="18" fill="__B1__"/>
  <circle cx="284" cy="118" r="14" fill="__B2__"/>
  <circle cx="320" cy="126" r="16" fill="__B3__"/>
  <circle cx="360" cy="120" r="13" fill="__B4__"/>
  <circle cx="396" cy="132" r="12" fill="__B5__"/>
</svg>
